
<svg xmlns="http://www.w3.org/2000/svg" viewBox="0 0 256 258" width="48" height="48">
  <g>
    <path fill="#25D366" d="M127.6.7C57.3.7.6 57.5.6 127.8c0 22.6 5.9 44.6 17.1 64.1L.7 257l66.4-17.4c18.6 10.2 39.4 15.6 60.5 15.6h.1c70.3 0 127-56.8 127-127.1C254.7 57.5 198 0.7 127.6.7z"/>
    <path fill="#FFF" d="M127.6 235.3h-.1c-19.4 0-38.4-5.2-55-15.1l-3.9-2.3-39.4 10.3 10.5-38.4-2.6-4.1c-10.5-16.7-16-36-16-55.9 0-57.8 47-104.8 104.8-104.8 28 0 54.3 10.9 74.1 30.7 19.8 19.8 30.7 46.1 30.7 74.1 0 57.8-47 104.9-104.9 104.9z"/>
    <path fill="#25D366" d="M189.7 151.6c-3.2-1.6-18.8-9.3-21.7-10.3-2.9-1-5-1.6-7.1 1.6s-8.2 10.3-10.1 12.4-3.7 2.3-6.9.8c-3.2-1.6-13.5-5-25.7-15.9-9.5-8.4-15.8-18.8-17.6-22s-.2-4.9 1.4-6.4c1.4-1.4 3.2-3.7 4.8-5.5 1.6-1.9 2.1-3.2 3.2-5.3 1-2.1.5-4-0.2-5.5-.8-1.6-7.1-17.1-9.7-23.4-2.6-6.3-5.3-5.4-7.1-5.5-1.8-.1-3.9-.1-6.1-.1s-5.5.8-8.3 4c-2.9 3.2-11 10.8-11 26.4s11.2 30.6 12.8 32.8c1.6 2.1 22 33.6 53.3 47 7.4 3.2 13.1 5.1 17.6 6.5 7.4 2.3 14.2 2 19.5 1.2 6-0.9 18.8-7.7 21.5-15.2 2.7-7.5 2.7-13.9 1.9-15.2-0.8-1.3-2.9-2.1-6.1-3.7z"/>
  </g>
</svg>
